<svg xmlns="http://www.w3.org/2000/svg" width="1200" height="700" viewBox="0 0 1200 700" role="img" aria-label="Burnout e exaustão laboral">
  <rect width="1200" height="700" fill="#fff4eb"/>
  <rect x="120" y="190" width="960" height="390" rx="28" fill="#ffffff" stroke="#ffd7bd" stroke-width="6"/>
  <rect x="220" y="255" width="380" height="220" rx="16" fill="#2f2f46"/>
  <rect x="255" y="292" width="310" height="16" rx="8" fill="#8f8fb2"/>
  <rect x="255" y="324" width="280" height="16" rx="8" fill="#8f8fb2"/>
  <rect x="255" y="356" width="230" height="16" rx="8" fill="#8f8fb2"/>
  <circle cx="790" cy="300" r="70" fill="#ff8a5c"/>
  <rect x="742" y="375" width="96" height="140" rx="44" fill="#ff8a5c"/>
  <path d="M744 497q50 32 94 0" stroke="#7b2d16" stroke-width="10" fill="none" stroke-linecap="round"/>
  <path d="M730 305l26 18M840 323l26-18" stroke="#7b2d16" stroke-width="10" stroke-linecap="round"/>
  <path d="M892 200q58 44 26 112" stroke="#ff4f1f" stroke-width="10" fill="none" stroke-linecap="round"/>
  <path d="M930 182q70 58 30 144" stroke="#ff7a45" stroke-width="8" fill="none" stroke-linecap="round"/>
  <text x="600" y="125" text-anchor="middle" font-family="Arial, sans-serif" font-size="48" fill="#a13c17" font-weight="700">Burnout</text>
</svg>