<svg xmlns="http://www.w3.org/2000/svg" width="1200" height="700" viewBox="0 0 1200 700" role="img" aria-label="Pessoa a tapar os ouvidos em desespero">
  <rect width="1200" height="700" fill="#eef0ff"/>
  <rect x="110" y="100" width="980" height="500" rx="28" fill="#ffffff" stroke="#d7dbff" stroke-width="6"/>
  <circle cx="600" cy="255" r="90" fill="#efc5ae"/>
  <path d="M520 238q80-108 160 0v30H520z" fill="#38385f"/>
  <rect x="505" y="345" width="190" height="190" rx="82" fill="#7b78c7"/>
  <path d="M500 345q-46 38-64 95" stroke="#efc5ae" stroke-width="24" stroke-linecap="round"/>
  <path d="M700 345q46 38 64 95" stroke="#efc5ae" stroke-width="24" stroke-linecap="round"/>
  <ellipse cx="430" cy="435" rx="18" ry="30" fill="#efc5ae"/>
  <ellipse cx="770" cy="435" rx="18" ry="30" fill="#efc5ae"/>
  <path d="M560 292q18 16 40 0" stroke="#2f2f52" stroke-width="7" fill="none" stroke-linecap="round"/>
  <path d="M600 292q18 16 40 0" stroke="#2f2f52" stroke-width="7" fill="none" stroke-linecap="round"/>
  <path d="M572 330q28 22 56 0" stroke="#2f2f52" stroke-width="8" fill="none" stroke-linecap="round"/>
  <path d="M350 210q-52 34-48 88" stroke="#7b78c7" stroke-width="8" fill="none" stroke-linecap="round"/>
  <path d="M850 210q52 34 48 88" stroke="#7b78c7" stroke-width="8" fill="none" stroke-linecap="round"/>
  <path d="M308 185l-40-20M892 185l40-20M290 325l-45 6M910 325l45 6" stroke="#8f8ce0" stroke-width="7" stroke-linecap="round"/>
  <text x="600" y="635" text-anchor="middle" font-family="Arial, sans-serif" font-size="42" font-weight="700" fill="#4f4ca0">Esquizofrenia</text>
</svg>