<svg xmlns="http://www.w3.org/2000/svg" width="1200" height="700" viewBox="0 0 1200 700" role="img" aria-label="Jovem a agarrar o peito durante ataque de pânico">
  <rect width="1200" height="700" fill="#f2f7ff"/>
  <rect x="120" y="110" width="960" height="480" rx="24" fill="#ffffff" stroke="#dce8ff" stroke-width="6"/>
  <circle cx="610" cy="260" r="88" fill="#f0c6b0"/>
  <path d="M535 230q75-95 150 0v32h-150z" fill="#5a4238"/>
  <rect x="520" y="345" width="180" height="190" rx="78" fill="#5d8ce0"/>
  <ellipse cx="640" cy="420" rx="52" ry="40" fill="#ff8e8e"/>
  <path d="M575 390q40 35 62 58" stroke="#f0c6b0" stroke-width="22" stroke-linecap="round"/>
  <path d="M705 390q-40 35-62 58" stroke="#f0c6b0" stroke-width="22" stroke-linecap="round"/>
  <path d="M560 285q20-22 42 0" stroke="#3e2c25" stroke-width="8" fill="none" stroke-linecap="round"/>
  <path d="M620 285q20-22 42 0" stroke="#3e2c25" stroke-width="8" fill="none" stroke-linecap="round"/>
  <path d="M580 318q30 22 60 0" stroke="#3e2c25" stroke-width="8" fill="none" stroke-linecap="round"/>
  <path d="M780 205l48-24M798 260l54 0M776 320l48 24" stroke="#ff5b5b" stroke-width="8" stroke-linecap="round"/>
  <text x="600" y="625" text-anchor="middle" font-family="Arial, sans-serif" font-size="44" font-weight="700" fill="#355ea8">Pânico</text>
</svg>