<svg xmlns="http://www.w3.org/2000/svg" width="1200" height="700" viewBox="0 0 1200 700" role="img" aria-label="Stress no trabalho">
  <rect width="1200" height="700" fill="#eaf1ff"/>
  <rect x="130" y="180" width="940" height="420" rx="26" fill="#ffffff" stroke="#c8d8ff" stroke-width="6"/>
  <rect x="210" y="260" width="400" height="230" rx="14" fill="#1f3d7a"/>
  <rect x="255" y="305" width="310" height="18" rx="9" fill="#84a9ff"/>
  <rect x="255" y="340" width="260" height="18" rx="9" fill="#84a9ff"/>
  <rect x="255" y="375" width="220" height="18" rx="9" fill="#84a9ff"/>
  <circle cx="790" cy="315" r="72" fill="#4a90e2"/>
  <rect x="742" y="395" width="96" height="130" rx="46" fill="#4a90e2"/>
  <path d="M688 330q22-34 52-8" stroke="#16325f" stroke-width="10" fill="none" stroke-linecap="round"/>
  <path d="M840 320q24-34 56-6" stroke="#16325f" stroke-width="10" fill="none" stroke-linecap="round"/>
  <path d="M744 508h94" stroke="#16325f" stroke-width="12" stroke-linecap="round"/>
  <path d="M900 188l42-54M962 204l68-28M986 262h72" stroke="#ff6f3d" stroke-width="10" stroke-linecap="round"/>
  <text x="600" y="125" text-anchor="middle" font-family="Arial, sans-serif" font-size="48" fill="#1f3d7a" font-weight="700">Stress</text>
</svg>