<svg xmlns="http://www.w3.org/2000/svg" width="1200" height="700" viewBox="0 0 1200 700" role="img" aria-label="Pessoa a organizar meticulosamente uma mesa">
  <rect width="1200" height="700" fill="#f5fbf7"/>
  <rect x="80" y="420" width="1040" height="180" rx="22" fill="#c78f5f"/>
  <rect x="120" y="445" width="960" height="140" rx="16" fill="#d39c6a"/>
  <circle cx="330" cy="220" r="72" fill="#f1c8b3"/>
  <path d="M265 205q65-88 130 0v25h-130z" fill="#2f3f4b"/>
  <rect x="255" y="290" width="150" height="150" rx="58" fill="#7ab2f4"/>
  <path d="M335 355l130 105" stroke="#f1c8b3" stroke-width="20" stroke-linecap="round"/>
  <path d="M308 355l-55 95" stroke="#f1c8b3" stroke-width="20" stroke-linecap="round"/>
  <rect x="500" y="470" width="90" height="90" rx="10" fill="#ffffff" stroke="#98b6a5"/>
  <rect x="610" y="470" width="90" height="90" rx="10" fill="#ffffff" stroke="#98b6a5"/>
  <rect x="720" y="470" width="90" height="90" rx="10" fill="#ffffff" stroke="#98b6a5"/>
  <rect x="830" y="470" width="90" height="90" rx="10" fill="#ffffff" stroke="#98b6a5"/>
  <line x1="500" y1="460" x2="920" y2="460" stroke="#6ca184" stroke-width="3" stroke-dasharray="10 8"/>
  <line x1="495" y1="570" x2="925" y2="570" stroke="#6ca184" stroke-width="3" stroke-dasharray="10 8"/>
  <text x="600" y="115" text-anchor="middle" font-family="Arial, sans-serif" font-size="44" font-weight="700" fill="#2f6f52">TOC</text>
</svg>